PathFileType	4	(X/Y/Z)	 s11c0202.trc
DataRate	CameraRate	NumFrames	NumMarkers	Units	OrigDataRate	OrigDataStartFrame	OrigNumFrames
200	200	4	48	mm	200	1001	2000
Frame#	Time	racr			lacr			c7			jug			rlel			rdr			llel			ldr			s2			lic			ric			lasi			rasi			rpsi			lpsi			rgt			lgt			rth1			rth2			rth3			rth4			rlfc			rmfc			rsh1			rsh2			rsh3			rsh4			rlmal			rcal			rtoe			rmt5			lth1			lth2			lth4			lth3			llfc			lmfc			llmal			lcal			lmt5			lsh1			lsh2			lsh3			lsh4			ltoe			SBIKE			LBIKE			RBIKE			
		X1	Y1	Z1	X2	Y2	Z2	X3	Y3	Z3	X4	Y4	Z4	X5	Y5	Z5	X6	Y6	Z6	X7	Y7	Z7	X8	Y8	Z8	X9	Y9	Z9	X10	Y10	Z10	X11	Y11	Z11	X12	Y12	Z12	X13	Y13	Z13	X14	Y14	Z14	X15	Y15	Z15	X16	Y16	Z16	X17	Y17	Z17	X18	Y18	Z18	X19	Y19	Z19	X20	Y20	Z20	X21	Y21	Z21	X22	Y22	Z22	X23	Y23	Z23	X24	Y24	Z24	X25	Y25	Z25	X26	Y26	Z26	X27	Y27	Z27	X28	Y28	Z28	X29	Y29	Z29	X30	Y30	Z30	X31	Y31	Z31	X32	Y32	Z32	X33	Y33	Z33	X34	Y34	Z34	X35	Y35	Z35	X36	Y36	Z36	X37	Y37	Z37	X38	Y38	Z38	X39	Y39	Z39	X40	Y40	Z40	X41	Y41	Z41	X42	Y42	Z42	X43	Y43	Z43	X44	Y44	Z44	X45	Y45	Z45	X46	Y46	Z46	X47	Y47	Z47	X48	Y48	Z48	
1001	5.0050	576.159421	1329.954109	-180.489517	495.136151	1355.746983	-468.932426	479.439872	1433.105203	-316.053745	473.205490	1249.651687	-322.585418	605.174582	1155.042701	46.656735	778.151084	970.904803	-52.848252	510.203931	1087.663566	-611.213413	767.260945	959.476134	-461.199846	-90.555304	1221.870368	-218.613118	93.848629	1255.400248	-449.084182	149.867184	1209.287437	-43.700526	128.423283	1187.254647	-404.707109	169.386346	1149.070550	-73.363666	-35.274066	1292.863964	-161.062315	-56.014887	1292.639793	-252.560572	59.072508	1055.047363	-26.155427	33.253016	1144.651338	-456.874955	141.530250	938.488460	-19.556818	210.350463	880.964112	-25.129122	242.080298	800.801411	-41.341693	239.943094	903.544953	-30.232472	303.748318	712.231250	-56.908315	315.560918	698.458005	-182.694967	229.083245	572.629852	-49.221234	205.818296	490.320241	-71.995447	145.275699	428.020181	-77.497390	230.352975	481.714337	-101.301489	71.976091	311.135887	-94.389798	10.782343	319.463390	-145.520965	259.281626	175.582569	-136.970028	183.260838	177.760188	-69.407304	172.481943	1095.513038	-477.053142	257.868417	1089.014836	-477.040742	271.353750	1121.056673	-463.193963	331.795949	1038.859424	-487.040219	462.546437	974.204481	-473.846290	485.786379	967.860013	-340.686461	267.700599	586.308839	-420.722321	204.680584	556.997241	-383.697343	391.595188	459.372018	-441.197417	408.792133	863.702406	-480.617561	395.531378	779.988984	-463.973716	340.943535	711.335333	-451.486277	426.680075	770.356974	-443.147005	487.095543	464.451331	-369.410366	-204.472319	954.030145	-260.839590	1.465379	82.805785	-461.099364	-15.166569	81.317900	-62.498832	
1002	5.0100	577.098826	1325.182402	-182.015054	495.037722	1354.728497	-468.270121	479.925190	1431.671351	-316.371309	471.760457	1248.422619	-325.126344	604.953821	1153.691949	47.454313	777.635876	970.925060	-52.242615	509.640517	1087.827642	-611.805280	766.596357	959.745308	-461.721805	-90.769499	1222.245768	-217.870334	91.607025	1256.243366	-448.773157	149.207391	1209.718610	-42.965525	126.572283	1185.812258	-405.601594	168.465993	1148.818293	-72.865290	-35.528435	1293.488823	-160.529184	-56.248848	1292.969365	-251.716955	59.769829	1055.317445	-26.101087	30.356080	1143.083821	-455.123697	144.584919	939.941356	-19.663021	214.545611	883.887412	-24.795559	247.824131	804.189309	-40.595356	243.659296	906.859343	-30.356581	310.862793	716.456032	-55.700121	323.122198	702.656637	-181.340261	233.138358	578.595601	-48.373161	208.078325	496.796685	-71.300295	146.089522	436.009976	-76.968374	232.449943	487.684818	-100.662150	70.291127	321.392550	-93.936169	9.496438	332.299287	-145.441219	251.802457	177.896125	-137.343325	176.094419	183.373975	-69.825112	170.624577	1091.938976	-476.881964	255.851174	1084.011871	-477.187797	269.923672	1115.978540	-463.656692	328.946000	1032.493608	-487.106227	460.245555	965.280652	-472.198143	483.139737	958.674496	-340.817863	269.560649	573.352798	-422.798206	206.624843	541.487943	-384.948509	397.976692	451.819988	-442.138265	406.492731	853.611848	-481.147997	394.328482	769.703203	-464.776264	340.603605	700.232232	-452.709016	425.662116	760.254241	-443.790144	492.951953	462.565743	-370.073477	-204.515005	954.124177	-261.057591	1.440550	82.773360	-461.099215	-15.179285	81.318168	-62.513479	
1003	5.0150	577.866982	1320.582315	-183.516550	494.956190	1354.256589	-467.809627	480.592980	1430.731924	-316.662028	470.058715	1247.764086	-327.703147	604.655918	1152.462883	48.287711	777.052664	970.914138	-51.831908	509.061980	1088.147394	-612.160476	766.045194	960.649243	-462.861240	-90.969247	1222.373911	-217.081196	89.303752	1256.452412	-447.904457	148.484319	1210.201165	-42.220203	125.059534	1184.261967	-407.099980	167.310604	1148.388055	-71.841491	-35.844754	1293.956164	-159.851167	-56.443679	1293.016656	-250.876270	60.691884	1055.490965	-26.122385	28.310475	1141.943794	-454.233589	147.904244	941.566248	-19.859101	218.957110	886.809415	-24.868522	253.842627	807.770338	-39.986806	247.568183	910.395374	-30.560219	318.348917	720.997318	-54.483034	330.830311	707.027190	-180.015323	237.543808	584.761444	-47.634373	210.706432	503.759637	-70.616012	147.468853	444.243503	-76.473609	234.891209	494.125186	-100.012502	69.081598	331.786008	-93.461076	8.837922	345.181972	-145.119515	244.667503	180.651876	-137.778627	169.313297	189.484465	-70.171860	168.901180	1087.532641	-476.835171	253.985845	1078.029121	-477.403029	268.702161	1109.794947	-464.200971	326.037428	1025.082499	-487.225022	456.779974	955.605668	-471.524160	480.220886	948.807099	-340.925890	271.310336	559.519965	-424.599317	208.573291	524.894023	-385.972808	404.006547	443.902591	-442.938809	403.919270	842.481972	-481.557515	392.802455	758.368292	-465.405897	340.028845	688.241112	-453.411718	424.262934	749.435920	-444.569544	498.276235	459.962490	-370.577629	-204.479969	953.995182	-261.499648	1.419934	82.708978	-461.085683	-15.191590	81.310584	-62.524862	
1004	5.0200	578.621868	1315.767126	-184.614689	494.946870	1353.950268	-467.233623	481.080134	1429.594079	-316.220050	468.718779	1246.963232	-330.003411	604.349225	1151.088138	49.055046	776.569245	971.026624	-51.561051	508.479057	1088.716500	-612.371803	764.848985	961.038096	-462.937365	-91.206511	1222.342139	-216.316681	87.137111	1256.393392	-447.149175	147.565444	1210.526848	-41.605412	123.705746	1182.474647	-408.574258	166.295462	1147.218999	-71.238415	-36.178891	1294.291580	-159.282464	-56.535673	1292.862386	-250.101426	61.839995	1055.544879	-26.199893	26.490176	1140.522689	-453.318697	151.458351	943.227744	-19.898174	223.616186	889.920562	-24.972679	260.144331	811.549246	-39.456898	251.598344	913.976701	-30.993873	326.039706	725.862019	-53.340961	338.401083	711.829804	-179.047007	242.222313	591.219923	-47.010323	213.623663	510.847018	-70.038628	149.162987	452.581445	-75.872911	237.660737	500.582507	-99.375004	68.545293	342.522651	-92.783611	8.875251	358.555050	-144.563350	237.710685	183.948419	-138.469787	163.020648	195.853159	-70.661243	167.244950	1082.376597	-476.792949	252.130452	1071.272438	-477.538175	267.499527	1102.853962	-464.922817	323.038544	1016.800671	-487.097071	452.732658	945.019631	-471.099871	476.661519	937.915228	-340.861249	272.856053	544.958745	-425.711575	210.420437	507.757227	-386.550628	409.405262	435.644053	-443.508750	401.104975	830.289279	-481.765073	390.919259	745.858406	-465.312177	339.238702	675.150937	-453.632604	422.625823	737.899671	-444.908693	502.872768	456.731812	-370.908798	-204.466501	953.882226	-261.572169	1.443969	82.656858	-461.091984	-15.178834	81.277439	-62.530389	
